PathFileType	4	(X/Y/Z)	I12_1_OpenSim.trc																																																																																																																						
DataRate	CameraRate	NumFrames	NumMarkers	Units	OrigDataRate	OrigDataStartFrame	OrigNumFrames																																																																																																																		
100	100	7	40	mm	100	751	3000																																																																																																																		
Frame#	Time	R.ASIS			R.PSIS			S2			L.PSIS			L.ASIS			R.TH1			R.TH2			R.TH3			R.MKnee			R.Knee			R.SH1			R.SH2			R.SH3			R.SH4			R.Ankle			R.MAnkle			R.Heel			R.MT5			R.MT1			L.TH1			L.TH2			L.TH3			L.TH4			L.MKnee			L.Knee			L.SH1			L.SH2			L.SH3			L.Ankle			L.MAnkle			L.Heel			L.MT5			L.MT1			R.Acr			L.Acr			C7			T10			Clav			Sternum			R.Back		
		X1	Y1	Z1	X2	Y2	Z2	X3	Y3	Z3	X4	Y4	Z4	X5	Y5	Z5	X6	Y6	Z6	X7	Y7	Z7	X8	Y8	Z8	X9	Y9	Z9	X10	Y10	Z10	X11	Y11	Z11	X12	Y12	Z12	X13	Y13	Z13	X14	Y14	Z14	X15	Y15	Z15	X16	Y16	Z16	X17	Y17	Z17	X18	Y18	Z18	X19	Y19	Z19	X20	Y20	Z20	X21	Y21	Z21	X22	Y22	Z22	X23	Y23	Z23	X24	Y24	Z24	X25	Y25	Z25	X26	Y26	Z26	X27	Y27	Z27	X28	Y28	Z28	X29	Y29	Z29	X30	Y30	Z30	X31	Y31	Z31	X32	Y32	Z32	X33	Y33	Z33	X34	Y34	Z34	X35	Y35	Z35	X36	Y36	Z36	X37	Y37	Z37	X38	Y38	Z38	X39	Y39	Z39	X40	Y40	Z40
751	7.5	839.0017	1044.6652	-429.5797	615.4377	1042.4027	-530.1038	597.9164	1041.9825	-575.1641	617.6544	1044.4242	-625.9222	827.1069	1054.0554	-722.8067	764.1993	707.0778	-424.7065	685.3635	722.4159	-410.9105	661.2073	616.9614	-430.7109	651.3769	498.0213	-562.1983	653.9149	497.091	-448.4528	615.7505	333.0271	-451.0084	586.9526	226.7609	-475.4605	536.2654	353.3136	-436.5328	511.2498	243.51	-453.1688	485.103	85.2273	-473.6541	522.0551	99.6028	-567.7063	420.7649	51.0222	-530.5294	594.8998	37.0225	-444.4965	641.4561	38.9091	-534.1071	901.1088	784.8552	-748.9861	937.9667	682.5864	-740.9131	825.3315	752.0821	-765.4553	865.2893	650.6985	-750.3779	971.7632	526.0412	-621.9512	969.4185	537.3497	-734.575	1004.6898	412.7609	-757.9823	923.6594	396.8356	-759.0197	947.3912	290.3185	-755.5002	1051.896	99.8386	-761.3493	1075.5111	117.1312	-663.6547	1002.4764	39.9096	-708.2191	1171.1992	88.1512	-775.806	1201.7628	112.317	-675.1338	816.7393	1455.5498	-432.3049	749.7319	1433.8002	-740.0314	734.9483	1482.446	-580.8317	693.4183	1158.468	-563.9537	870.9828	1386.2996	-598.7551	896.76	1241.498	-585.1787	667.1623	1388.4412	-480.411
752	7.51	838.7128	1042.6628	-430.5042	615.5879	1040.6635	-532.0176	598.2675	1040.2899	-577.1276	618.327	1042.605	-627.7256	828.0386	1052.3173	-723.8401	762.0959	705.7351	-425.6115	683.311	721.7119	-412.3164	658.3622	616.4221	-431.936	648.1911	497.1861	-563.0824	649.9701	496.4872	-449.3946	609.156	332.873	-451.5669	578.5651	227.0541	-475.7985	529.9276	354.602	-437.3734	502.8808	245.3226	-453.6689	474.0579	87.0837	-473.6953	511.5013	101.0639	-567.7031	409.4799	53.8417	-530.5798	583.1358	37.0635	-444.4177	629.7181	38.8072	-534.1071	901.56	782.2388	-749.3796	937.7119	679.7951	-740.8848	825.6439	750.0152	-766.3168	864.8339	648.3884	-750.7551	970.057	523.7177	-621.8555	968.0527	534.7846	-734.3094	1004.3481	410.6096	-757.6609	923.6	393.4358	-757.8956	949.1585	287.2949	-753.7919	1057.0713	98.4049	-759.3429	1081.2964	116.6114	-661.9753	1009.3673	37.6371	-705.4207	1176.5808	88.9938	-774.85	1207.5485	114.2721	-674.6674	817.0723	1453.6616	-433.468	750.043	1431.9236	-741.1536	735.2231	1480.6438	-581.8897	693.6263	1156.6689	-565.1908	871.2737	1384.3165	-599.7978	896.9838	1239.4844	-586.129	667.3932	1386.7034	-481.4776
753	7.52	838.5823	1040.8236	-431.5355	615.8689	1038.9677	-534.0774	598.733	1038.6462	-579.2414	619.0839	1040.9082	-629.6941	829.1435	1050.7952	-725.0167	760.4363	704.5286	-426.6402	681.6681	721.0496	-413.9192	656.0815	615.8807	-433.3233	645.7867	496.295	-564.0717	646.7482	495.8796	-450.4515	603.1108	332.7922	-452.2092	570.5604	227.4792	-476.1638	524.1808	356.0772	-438.2843	494.8837	247.4308	-454.1538	463.2493	89.233	-473.69	501.2006	102.8119	-567.635	398.3682	57.1779	-530.5797	571.4437	37.1096	-444.3152	618.0175	38.6758	-534.1202	902.3512	779.9119	-749.8791	937.8149	677.3222	-740.8805	826.288	748.2092	-767.0789	864.7318	646.3838	-750.9788	968.9179	521.9012	-621.768	966.9225	532.4772	-734.0002	1003.3787	408.2388	-757.1069	922.8251	390.4246	-756.4897	949.4335	284.5005	-751.645	1059.0857	96.6861	-756.9057	1084.207	115.666	-659.8412	1012.6191	35.6545	-702.0437	1178.5637	88.4819	-773.6533	1210.3292	114.5997	-673.9965	817.386	1451.8815	-434.7111	750.3905	1430.2252	-742.3795	735.4898	1478.9653	-583.0411	694.0043	1154.9872	-566.5679	871.5875	1382.5076	-600.9383	897.2943	1237.6599	-587.2109	667.6333	1385.0499	-482.6886
754	7.53	838.6696	1039.166	-432.6988	616.3333	1037.36	-536.2554	599.3593	1037.1003	-581.4761	619.9445	1039.3969	-631.8082	830.4285	1049.5276	-726.3492	759.2358	703.4746	-427.8018	680.459	720.4473	-415.7108	654.3798	615.358	-434.8556	644.1568	495.3718	-565.1475	644.2581	495.2929	-451.5916	597.6122	332.8329	-452.9036	562.9462	228.085	-476.5151	519.0223	357.7879	-439.2425	487.2838	249.8736	-454.6091	452.7309	91.7054	-473.6007	491.1927	104.8791	-567.464	387.4431	61.117	-530.5005	559.8441	37.1517	-444.1769	606.3515	38.5048	-534.1372	903.4401	777.8711	-750.5256	938.2175	675.1501	-740.9143	827.1992	746.6514	-767.7288	864.9168	644.6742	-751.0085	968.2606	520.571	-621.6476	965.9943	530.4137	-733.5955	1001.8837	405.6798	-756.2882	921.4108	387.802	-754.8713	948.3192	281.9214	-749.1995	1058.1813	94.709	-754.1986	1084.2906	114.1932	-657.3554	1012.3546	33.9163	-698.4307	1177.4467	86.6519	-772.1803	1210.231	113.2009	-672.9825	817.654	1450.2469	-436.0282	750.7651	1428.7373	-743.7151	735.7344	1477.4425	-584.2944	694.5788	1153.4451	-568.0868	871.9205	1380.922	-602.182	897.7112	1236.0819	-588.4324	667.872	1383.4921	-484.0555
755	7.54	839.0306	1037.7105	-434.0205	617.0385	1035.8964	-538.5271	600.1978	1035.7114	-583.8066	620.9389	1038.1332	-634.0487	831.8953	1048.5448	-727.8474	758.5197	702.5912	-429.0979	679.7119	719.9184	-417.6737	653.2861	614.8655	-436.5063	643.3103	494.4314	-566.2799	642.5299	494.7478	-452.7713	592.6796	333.0344	-453.5977	555.7493	228.9219	-476.7956	514.4814	359.7733	-440.2153	480.1578	252.6655	-455.0259	442.5619	94.5363	-473.3784	481.5278	107.2941	-567.141	376.7495	65.7381	-530.3043	548.3584	37.181	-443.9881	594.7156	38.2803	-534.1447	904.7667	776.093	-751.3496	938.8375	673.2367	-741.0013	828.2977	745.3217	-768.2736	865.3013	643.2324	-750.8357	967.9207	519.6596	-621.4575	965.2148	528.5728	-733.0632	999.9825	403.0053	-755.1979	919.4783	385.5734	-753.1525	945.994	279.5799	-746.662	1054.7502	92.5787	-751.4022	1081.7413	112.1867	-654.65	1008.8832	32.4461	-694.9417	1173.6614	83.6763	-770.4104	1207.5017	110.1372	-671.5154	817.8505	1448.7958	-437.4133	751.1563	1427.4901	-745.1639	735.9461	1476.1106	-585.6578	695.3647	1152.0625	-569.7464	872.2709	1379.6085	-603.5311	898.2522	1234.8066	-589.7997	668.0967	1382.0429	-485.5875
756	7.55	839.7106	1036.4832	-435.5231	618.0335	1034.6414	-540.8737	601.2967	1034.5469	-586.2134	622.1125	1037.174	-636.3995	833.5381	1047.8689	-729.513	758.327	701.8945	-430.5229	679.4631	719.4666	-419.7811	652.8518	614.4005	-438.241	643.2823	493.4763	-567.4308	641.6234	494.2552	-453.9423	588.366	333.4218	-454.2279	549.0242	230.0387	-476.9432	510.63	362.0577	-441.1664	473.6304	255.8072	-455.3985	432.8145	97.7647	-472.9722	472.2717	110.0775	-566.6142	366.3715	71.1126	-529.9512	537.0077	37.1914	-443.7341	583.1058	37.987	-534.1281	906.2563	774.5413	-752.3653	939.5785	671.5303	-741.1594	829.5015	744.2023	-768.7438	865.7841	642.0266	-750.4933	967.6733	519.0651	-621.1763	964.5225	526.9374	-732.4043	997.8126	400.3267	-753.869	917.1912	383.747	-751.4846	942.7172	277.5235	-744.2743	1049.3032	90.4419	-748.7098	1076.9077	109.7434	-651.8848	1002.6898	31.3184	-691.8966	1167.7432	79.8175	-768.3536	1202.5149	105.6332	-669.5488	817.9526	1447.5653	-438.8599	751.5533	1426.5126	-746.7253	736.1203	1475.0089	-587.1374	696.3628	1150.8628	-571.5388	872.6398	1378.6155	-604.9852	898.9295	1233.8868	-591.3161	668.2926	1380.7217	-487.2917
757	7.56	840.734	1035.5162	-437.2202	619.3468	1033.6626	-543.2802	602.6917	1033.6766	-588.681	623.5093	1036.5719	-638.847	835.3397	1047.5165	-731.3367	758.7107	701.3939	-432.0669	679.7596	719.0838	-421.9974	653.15	613.9458	-440.02	644.1396	492.4949	-568.5586	641.6323	493.8116	-455.0583	584.7588	334.0088	-454.7373	542.8596	231.4768	-476.9063	507.5829	364.6506	-442.0638	467.8425	259.3091	-455.7109	423.5809	101.433	-472.3419	463.5112	113.2379	-565.8397	356.4353	77.3059	-529.4106	525.8143	37.1855	-443.4053	571.5217	37.6127	-534.0773	907.8279	773.1841	-753.5668	940.343	669.9899	-741.4091	830.7391	743.2883	-769.1937	866.265	641.0367	-750.0604	967.2671	518.6725	-620.8084	963.8596	525.5046	-731.6597	995.524	397.781	-752.3849	914.7354	382.3346	-750.0497	938.8104	275.8109	-742.2778	1042.41	88.4407	-746.3131	1070.2644	107.0464	-649.2397	994.392	30.6179	-689.5272	1160.2776	75.3688	-766.0621	1195.7397	100.0507	-667.1252	817.9452	1446.5953	-440.3593	751.9492	1425.8355	-748.3946	736.2609	1474.1802	-588.7335	697.5602	1149.8817	-573.4477	873.0299	1377.9902	-606.5413	899.749	1233.3719	-592.9795	668.4464	1379.5582	-489.1719
